<svg width="100" height="100" viewBox="0 0 100 100" fill="none" xmlns="http://www.w3.org/2000/svg">
<rect width="100" height="100" rx="50" fill="#EDEDED"/>
<path d="M50 14.5L49.1438 15.05L14.8 36.875V63.125L50 85.5L85.2 63.125V36.875L50 14.5ZM50 18.3L82 38.6313V61.3687L50 81.7L18 61.3687V38.6313L50 18.3ZM48.4 23.0062L22.4188 39.5187L34.9313 48.1938L48.4 39.0187V23.0062ZM51.6 23.0062V39.0187L52.3 39.4938L65.0688 48.1938L77.5813 39.5187L51.6 23.0062ZM45.2 28.8313V37.325L34.95 44.3125L28.2 39.6313L45.2 28.8313ZM54.8 28.8313L71.8 39.6313L65.05 44.3062L54.8 37.325V28.8313ZM50 41.7L37.6813 50.1L50 58.6375L50.9125 58.0062L62.3188 50.1L50 41.7ZM21.2 42.4687V57.5562L32.1751 50.075L30.2563 48.75L21.2 42.4687ZM78.8 42.475L67.825 50.075L69.75 51.3938L78.8 57.5562V42.475ZM50 45.575L56.6688 50.125L50 54.7438L43.3313 50.125L50 45.575ZM24.4 48.5813L26.525 50.0562L24.4 51.5V48.5813ZM75.6 48.5813V51.5L73.4751 50.0562L75.6 48.5813ZM34.9188 51.9813L34.0063 52.6L22.4376 60.4938L48.4 76.9938V61.325L34.9188 51.9813ZM65.0813 51.9813L51.6 61.325V76.9938L77.5625 60.4938L65.0813 51.9813ZM34.9 55.8687L45.2 63V71.1687L28.25 60.4L34.9 55.8687ZM65.1 55.8687L71.75 60.4L54.8 71.1687V63L65.1 55.8687Z" fill="black"/>
</svg>
