<svg width="100" height="100" viewBox="0 0 100 100" fill="none" xmlns="http://www.w3.org/2000/svg">
<path d="M88.3487 43.0304C86.5472 41.7804 82.4189 41.3117 79.1913 41.9367C78.816 38.8118 77.0896 36.0775 74.0872 33.6557L72.3608 32.4058L71.1598 34.2026C69.6586 36.5463 68.908 39.8274 69.1332 42.9522C69.2083 44.046 69.5836 45.999 70.7095 47.7177C69.6586 48.3427 67.4819 49.1239 64.6296 49.1239H10.3609L10.2107 49.7488C9.68532 52.8737 9.68532 62.639 15.8403 70.1387C20.494 75.8416 27.3996 78.7321 36.4819 78.7321C56.1477 78.7321 70.7095 69.2793 77.54 52.1706C80.2421 52.2487 86.0218 52.1706 88.9492 46.3115C89.0242 46.1552 89.1743 45.8428 89.6998 44.6709L90 44.046L88.3487 43.0304ZM53.7458 21H45.4892V28.8122H53.7458V21ZM53.7458 30.3746H45.4892V38.1868H53.7458V30.3746ZM43.9879 30.3746H35.7313V38.1868H43.9879V30.3746ZM34.2301 30.3746H25.9734V38.1868H34.2301V30.3746ZM24.4722 39.7492H16.2156V47.5614H24.4722V39.7492ZM34.2301 39.7492H25.9734V47.5614H34.2301V39.7492ZM43.9879 39.7492H35.7313V47.5614H43.9879V39.7492ZM53.7458 39.7492H45.4892V47.5614H53.7458V39.7492ZM63.5037 39.7492H55.247V47.5614H63.5037V39.7492Z" fill="#DDF0FF"/>
</svg>
