<svg width="64" height="64" viewBox="0 0 64 64" fill="none" xmlns="http://www.w3.org/2000/svg">
<path d="M56.2667 29.4666L34.5333 7.73329C33.8667 7.06663 32.9333 6.66663 32 6.66663C31.0667 6.66663 30.1333 7.06663 29.4667 7.73329L24.8 12.4L30.2667 17.8666C30.8 17.6 31.3333 17.4666 32 17.4666C34.2667 17.4666 36 19.2 36 21.4666C36 22.1333 35.8667 22.6666 35.6 23.2L40.9333 28.5333C41.4667 28.2666 42 28.1333 42.6667 28.1333C44.9333 28.1333 46.6667 29.8666 46.6667 32.1333C46.6667 34.4 44.9333 36.1333 42.6667 36.1333C40.4 36.1333 38.6667 34.4 38.6667 32.1333C38.6667 31.4666 38.8 30.9333 39.0667 30.4L33.7333 25.0666C33.6 25.0666 33.4667 25.2 33.3333 25.2V39.0666C34.9333 39.6 36 41.0666 36 42.8C36 45.0666 34.2667 46.8 32 46.8C29.7333 46.8 28 45.0666 28 42.8C28 41.0666 29.0667 39.6 30.6667 39.0666V25.0666C29.0667 24.5333 28 23.0666 28 21.3333C28 20.6666 28.1333 20.1333 28.4 19.6L22.9333 14.1333L7.73333 29.4666C7.06666 30.1333 6.66666 31.0666 6.66666 32C6.66666 32.9333 7.06666 33.8666 7.73333 34.5333L29.4667 56.2666C30.1333 56.9333 31.0667 57.3333 32 57.3333C32.9333 57.3333 33.8667 56.9333 34.5333 56.2666L56.2667 34.5333C56.9333 33.8666 57.3333 32.9333 57.3333 32C57.3333 31.0666 56.9333 30.1333 56.2667 29.4666Z" fill="#FDFDFD"/>
</svg>
