<svg width="100" height="100" viewBox="0 0 100 100" fill="none" xmlns="http://www.w3.org/2000/svg">
<path d="M89.8719 45.3673C89.7282 43.9063 89.4887 42.2299 89.0097 40.3618C88.5307 38.5177 87.8122 36.482 86.7585 34.3744C85.7047 32.2668 84.3395 30.0874 82.5673 27.9559C81.8727 27.1177 81.1064 26.3034 80.2921 25.513C81.5135 20.6513 78.8072 16.4361 78.8072 16.4361C74.137 16.1487 71.1673 17.8971 70.0656 18.6874C69.874 18.6156 69.7063 18.5198 69.5147 18.4479C68.7244 18.1366 67.9101 17.8252 67.0479 17.5618C66.2097 17.2983 65.3475 17.0588 64.4614 16.8433C63.5752 16.6277 62.6891 16.4601 61.779 16.3164C61.6114 16.2924 61.4677 16.2685 61.3 16.2445C59.2643 9.73025 53.4206 7 53.4206 7C46.8824 11.1433 45.661 16.9391 45.661 16.9391C45.661 16.9391 45.637 17.0588 45.5891 17.2744C45.2299 17.3702 44.8706 17.4899 44.5114 17.5857C44.0084 17.7294 43.5055 17.921 43.0265 18.1126C42.5236 18.3042 42.0446 18.4958 41.5416 18.7114C40.5597 19.1424 39.5778 19.6214 38.6198 20.1483C37.6857 20.6752 36.7756 21.25 35.8895 21.8487C35.7698 21.8009 35.65 21.753 35.65 21.753C26.5971 18.3042 18.574 22.4475 18.574 22.4475C17.8315 32.0752 22.1903 38.1345 23.0525 39.2362C22.837 39.8349 22.6454 40.4336 22.4538 41.0324C21.7832 43.2118 21.2803 45.4391 20.9689 47.7622C20.921 48.0975 20.8731 48.4328 20.8492 48.7681C12.4668 52.9114 10 61.3656 10 61.3656C16.9693 69.3887 25.1122 69.8916 25.1122 69.8916L25.1361 69.8677C26.166 71.7118 27.3635 73.4601 28.7046 75.1127C29.2794 75.8072 29.8542 76.4538 30.4769 77.1005C27.9382 84.3811 30.8362 90.4164 30.8362 90.4164C38.5958 90.7038 43.6971 87.0156 44.7748 86.1774C45.5412 86.4408 46.3315 86.6803 47.1219 86.8719C49.5168 87.4946 51.9597 87.8538 54.4026 87.9496C55.0013 87.9736 55.624 87.9975 56.2227 87.9736H56.5101H56.7017H57.0849L57.4681 87.9496V87.9736C61.1324 93.1946 67.5509 93.937 67.5509 93.937C72.1253 89.1232 72.3887 84.3332 72.3887 83.3034C72.3887 83.3034 72.3887 83.2795 72.3887 83.2316C72.3887 83.1358 72.3887 83.0879 72.3887 83.0879C72.3887 83.016 72.3887 82.9442 72.3887 82.8723C73.3467 82.2017 74.2568 81.4832 75.119 80.6929C76.9391 79.0404 78.5437 77.1484 79.8849 75.1127C80.0047 74.9211 80.1244 74.7295 80.2442 74.5379C85.4173 74.8253 89.0816 71.3286 89.0816 71.3286C88.2194 65.94 85.1538 63.3055 84.5072 62.8026C84.5072 62.8026 84.4832 62.7786 84.4353 62.7547C84.3874 62.7307 84.3875 62.7068 84.3875 62.7068C84.3635 62.6828 84.3156 62.6589 84.2677 62.6349C84.2917 62.2996 84.3156 61.9883 84.3395 61.653C84.3874 61.0782 84.3875 60.4794 84.3875 59.9047V59.4736V59.258V59.1383C84.3875 58.9946 84.3875 59.0425 84.3875 58.9946L84.3635 58.6353L84.3395 58.1563C84.3395 57.9887 84.3156 57.845 84.2916 57.7013C84.2677 57.5576 84.2677 57.39 84.2438 57.2463L84.1959 56.7912L84.124 56.3362C84.0282 55.7374 83.9324 55.1626 83.7887 54.5639C83.2379 52.2408 82.3278 50.0374 81.1543 48.0496C79.9568 46.0618 78.4719 44.3135 76.7715 42.8286C75.095 41.3437 73.203 40.1462 71.2391 39.2601C69.2513 38.374 67.1916 37.7992 65.132 37.5357C64.1021 37.392 63.0723 37.3441 62.0425 37.3681H61.6593H61.5635C61.5395 37.3681 61.4198 37.3681 61.4437 37.3681H61.2761L60.8929 37.392C60.7492 37.392 60.6055 37.416 60.4857 37.416C59.9589 37.4639 59.432 37.5357 58.929 37.6315C56.8694 38.0147 54.9294 38.7572 53.229 39.787C51.5286 40.8168 50.0437 42.0862 48.8462 43.5231C47.6488 44.9601 46.7147 46.5647 46.0681 48.2173C45.4215 49.8698 45.0622 51.5941 44.9664 53.2467C44.9425 53.6538 44.9425 54.0849 44.9425 54.4921C44.9425 54.5878 44.9425 54.7076 44.9425 54.8034L44.9664 55.1387C44.9904 55.3303 44.9904 55.5458 45.0143 55.7374C45.0862 56.5757 45.2538 57.39 45.4694 58.1563C45.9244 59.7131 46.6429 61.1261 47.529 62.3236C48.4152 63.521 49.4929 64.503 50.6185 65.2933C51.7441 66.0597 52.9656 66.6105 54.1631 66.9698C55.3605 67.329 56.558 67.4727 57.6836 67.4727C57.8273 67.4727 57.971 67.4727 58.0908 67.4727C58.1626 67.4727 58.2345 67.4727 58.3063 67.4727C58.3782 67.4727 58.45 67.4727 58.5219 67.4488C58.6416 67.4488 58.7614 67.4248 58.8811 67.4248C58.9051 67.4248 58.953 67.4248 58.9769 67.4009L59.0967 67.3769C59.1685 67.3769 59.2404 67.353 59.3122 67.353C59.4559 67.329 59.5757 67.3051 59.7194 67.2811C59.8631 67.2572 59.9828 67.2332 60.1026 67.1853C60.366 67.1374 60.6055 67.0416 60.845 66.9698C61.324 66.8021 61.803 66.6105 62.2101 66.395C62.6412 66.1795 63.0244 65.916 63.4076 65.6765C63.5034 65.6047 63.6231 65.5328 63.7189 65.437C64.1021 65.1257 64.174 64.5509 63.8626 64.1677C63.5992 63.8324 63.1202 63.7366 62.737 63.9521C62.6412 64 62.5454 64.0479 62.4496 64.0958C62.1143 64.2635 61.779 64.4072 61.4198 64.5269C61.0605 64.6467 60.6773 64.7425 60.2942 64.8143C60.1026 64.8383 59.911 64.8622 59.6954 64.8862C59.5996 64.8862 59.5038 64.9101 59.3841 64.9101C59.2883 64.9101 59.1685 64.9101 59.0967 64.9101C59.0009 64.9101 58.9051 64.9101 58.8093 64.9101C58.6895 64.9101 58.5698 64.9101 58.45 64.8862C58.45 64.8862 58.3782 64.8862 58.4261 64.8862H58.3782H58.3063C58.2584 64.8862 58.1866 64.8862 58.1387 64.8622C58.0189 64.8383 57.9231 64.8383 57.8034 64.8143C56.9173 64.6946 56.0311 64.4311 55.1929 64.0479C54.3307 63.6647 53.5164 63.1379 52.774 62.4673C52.0315 61.7967 51.3849 61.0063 50.882 60.0963C50.379 59.1862 50.0198 58.1803 49.8521 57.1265C49.7803 56.5996 49.7324 56.0488 49.7563 55.5219C49.7563 55.3782 49.7803 55.2345 49.7803 55.0908C49.7803 55.1387 49.7803 55.0668 49.7803 55.0668V55.0189V54.8992C49.7803 54.8273 49.8042 54.7555 49.8042 54.6836C49.8282 54.3963 49.8761 54.1089 49.924 53.8215C50.3311 51.5223 51.4807 49.271 53.253 47.5706C53.708 47.1395 54.187 46.7563 54.6899 46.3971C55.1929 46.0378 55.7437 45.7265 56.3185 45.4631C56.8933 45.1996 57.4681 44.9841 58.0908 44.8164C58.6895 44.6488 59.3122 44.553 59.9589 44.4811C60.2702 44.4572 60.5815 44.4332 60.9168 44.4332C61.0126 44.4332 61.0605 44.4332 61.1324 44.4332H61.3958H61.5635C61.6353 44.4332 61.5635 44.4332 61.5874 44.4332H61.6593L61.9227 44.4572C62.6173 44.5051 63.2879 44.6009 63.9584 44.7685C65.2996 45.0559 66.6168 45.5589 67.8383 46.2294C70.2811 47.5946 72.3648 49.7021 73.6341 52.2408C74.2807 53.5101 74.7358 54.8752 74.9513 56.2883C74.9992 56.6475 75.0471 57.0068 75.0711 57.366L75.095 57.6294L75.119 57.8929C75.119 57.9887 75.119 58.0845 75.119 58.1563C75.119 58.2521 75.119 58.3479 75.119 58.4198V58.6593V58.9227C75.119 59.0904 75.095 59.3778 75.095 59.5454C75.0711 59.9286 75.0232 60.3358 74.9753 60.7189C74.9274 61.1021 74.8555 61.4853 74.7837 61.8685C74.7118 62.2517 74.616 62.6349 74.5202 62.9942C74.3286 63.7366 74.0891 64.479 73.8017 65.2215C73.2269 66.6584 72.4605 68.0475 71.5505 69.3169C69.7063 71.8555 67.1916 73.9152 64.3177 75.2324C62.8807 75.879 61.3719 76.358 59.8152 76.5975C59.0488 76.7412 58.2584 76.8131 57.4681 76.837H57.3244H57.2047H56.9412H56.558H56.3664C56.4622 76.837 56.3425 76.837 56.3425 76.837H56.2706C55.8395 76.837 55.4324 76.8131 55.0013 76.7652C53.3248 76.6454 51.6723 76.3341 50.0437 75.879C48.4391 75.424 46.8824 74.7774 45.3975 74.011C42.4517 72.4303 39.7933 70.2748 37.7336 67.6643C36.7038 66.3711 35.7937 64.958 35.0513 63.4971C34.3088 62.0362 33.7101 60.4795 33.279 58.9227C32.8479 57.3421 32.5845 55.7374 32.4647 54.1089L32.4408 53.7975V53.7257V53.6538V53.5101V53.2467V53.1748V53.079V52.8874V52.5042V52.4324C32.4408 52.4324 32.4408 52.4563 32.4408 52.4084V52.2647C32.4408 52.0731 32.4408 51.8576 32.4408 51.666C32.4647 50.8757 32.5366 50.0374 32.6324 49.2231C32.7282 48.4089 32.8719 47.5706 33.0395 46.7563C33.2072 45.942 33.3988 45.1278 33.6383 44.3135C34.0933 42.7089 34.6681 41.1521 35.3387 39.6912C36.7038 36.7693 38.4761 34.1588 40.6076 32.0752C41.1345 31.5483 41.6853 31.0693 42.2601 30.5904C42.8349 30.1353 43.4336 29.7042 44.0563 29.2971C44.6551 28.8899 45.3017 28.5307 45.9483 28.1954C46.2597 28.0277 46.595 27.8601 46.9303 27.7164C47.0979 27.6446 47.2656 27.5727 47.4332 27.5009C47.6009 27.429 47.7685 27.3572 47.9362 27.2853C48.6068 26.9979 49.3013 26.7584 50.0198 26.5429C50.1874 26.495 50.379 26.4471 50.5467 26.3752C50.7143 26.3273 50.9059 26.2794 51.0736 26.2315C51.4328 26.1357 51.792 26.0399 52.1513 25.9681C52.3189 25.9202 52.5105 25.8962 52.7021 25.8483C52.8937 25.8004 53.0614 25.7765 53.253 25.7286C53.4446 25.7046 53.6122 25.6567 53.8038 25.6328L54.0673 25.5849L54.3547 25.537C54.5463 25.513 54.7139 25.4891 54.9055 25.4651C55.121 25.4412 55.3126 25.4172 55.5282 25.3933C55.6958 25.3693 55.9832 25.3454 56.1509 25.3214C56.2706 25.2975 56.4143 25.2975 56.5341 25.2735L56.7975 25.2496L56.9173 25.2256H57.061C57.2765 25.2017 57.4681 25.2017 57.6836 25.1777L57.995 25.1538C57.995 25.1538 58.1147 25.1538 58.0189 25.1538H58.0908H58.2345C58.4021 25.1538 58.5937 25.1298 58.7614 25.1298C59.4559 25.1059 60.1744 25.1059 60.8689 25.1298C62.258 25.1777 63.6231 25.3454 64.9404 25.5849C67.5988 26.0878 70.0895 26.9261 72.3647 28.0517C74.64 29.1534 76.6517 30.5185 78.424 32.0034C78.5437 32.0992 78.6395 32.195 78.7593 32.2908C78.8551 32.3866 78.9748 32.4824 79.0706 32.5782C79.2862 32.7698 79.4778 32.9614 79.6933 33.153C79.9089 33.3446 80.1005 33.5362 80.2921 33.7278C80.4837 33.9193 80.6753 34.1109 80.8669 34.3265C81.6093 35.1168 82.3038 35.9072 82.9265 36.7215C84.1719 38.3261 85.1778 39.9546 85.9681 41.4874C86.016 41.5832 86.0639 41.679 86.1118 41.7748C86.1597 41.8706 86.2076 41.9664 86.2555 42.0622C86.3513 42.2538 86.4471 42.4454 86.519 42.637C86.6148 42.8286 86.6866 42.9962 86.7824 43.1878C86.8543 43.3794 86.9501 43.5471 87.0219 43.7387C87.3093 44.4572 87.5967 45.1517 87.8122 45.7983C88.1715 46.8521 88.4349 47.7862 88.6505 48.6005C88.7223 48.9357 89.0337 49.1513 89.369 49.1034C89.7282 49.0794 89.9917 48.792 89.9917 48.4328C90.0156 47.5706 89.9917 46.5408 89.8719 45.3673Z" fill="#363636"/>
</svg>
