<svg width="120" height="120" viewBox="0 0 120 120" fill="none" xmlns="http://www.w3.org/2000/svg">
<path d="M15 105V15H105V105H15Z" fill="#FFD600"/>
<path d="M69.5011 68.9198C71.7908 72.608 74.279 76.1419 79.5499 76.1419C83.977 76.1419 86.2998 73.9598 86.2998 70.9411C86.2998 67.3284 83.8976 66.0455 79.0271 63.9422L76.3569 62.8134C68.6508 59.5716 63.5255 55.5094 63.5255 46.9289C63.5255 39.0211 69.6302 33.0033 79.1694 33.0033C85.9623 33.0033 90.8427 35.3362 94.3633 41.4459L86.045 46.7189C84.2153 43.477 82.2366 42.2006 79.1694 42.2006C76.0393 42.2006 74.0573 44.1595 74.0573 46.7189C74.0573 49.882 76.0426 51.1617 80.6253 53.1206L83.2954 54.2494C92.378 58.0852 97.5 62.003 97.5 70.8098C97.5 80.2992 89.9428 85.5 79.7981 85.5C69.875 85.5 64.2402 80.5617 61.1035 74.4487L69.5011 68.9198ZM31.1657 69.1889C32.8399 72.1617 35.3844 74.4487 39.0439 74.4487C42.5446 74.4487 44.5596 73.0772 44.5596 67.7452V33H55.5877V69.4252C55.5877 80.4731 49.1257 85.5 39.6891 85.5C31.1624 85.5 25.0081 79.7709 22.5 74.4487L31.1657 69.1889Z" fill="#000001"/>
</svg>
