<svg width="100" height="100" viewBox="0 0 100 100" fill="none" xmlns="http://www.w3.org/2000/svg">
<g opacity="0.9">
<path d="M26.2362 37.1612H43.211V38.5103H27.7922V48.6647H42.2916V50.0139H27.7922V61.1624H43.3879V62.5116H26.2362V37.1612ZM44.7317 37.1612H46.5353L54.5276 48.3097L62.6967 37.1612L73.8081 23L55.5531 49.4813L64.96 62.5116H63.0857L54.5276 50.653L45.9341 62.5116H44.0951L53.5728 49.4813L44.7317 37.1612ZM65.6319 38.5103V37.1612H84.9762V38.5103H76.0644V62.5116H74.5084V38.5103H65.6319ZM5 37.1612H6.94503L33.7659 77.296L22.6821 62.5116L6.62675 39.0784L6.55603 62.5116H5V37.1612ZM84.8194 60.7553C84.5015 60.7553 84.2631 60.5089 84.2631 60.1906C84.2631 59.8723 84.5015 59.626 84.8194 59.626C85.1411 59.626 85.3757 59.8723 85.3757 60.1906C85.3757 60.5089 85.1411 60.7553 84.8194 60.7553ZM86.3484 59.2698H87.181C87.1923 59.7207 87.5216 60.0239 88.006 60.0239C88.5472 60.0239 88.8538 59.698 88.8538 59.0879V55.2225H89.7015V59.0916C89.7015 60.1906 89.0657 60.8235 88.0136 60.8235C87.0258 60.8235 86.3484 60.2096 86.3484 59.2698ZM90.8104 59.2205H91.6506C91.7225 59.7397 92.2297 60.0694 92.9601 60.0694C93.6413 60.0694 94.1409 59.7169 94.1409 59.2319C94.1409 58.815 93.823 58.5649 93.1001 58.3944L92.3962 58.2238C91.4084 57.9927 90.958 57.5152 90.958 56.7118C90.958 55.7379 91.7528 55.0899 92.945 55.0899C94.0538 55.0899 94.8638 55.7379 94.913 56.6588H94.0879C94.0084 56.1548 93.5694 55.8402 92.9336 55.8402C92.2637 55.8402 91.8171 56.1623 91.8171 56.655C91.8171 57.0453 92.1048 57.2689 92.8163 57.4356L93.418 57.5834C94.5383 57.8449 95 58.2996 95 59.122C95 60.1679 94.1901 60.8235 92.8958 60.8235C91.6847 60.8235 90.871 60.1982 90.8104 59.2205Z" fill="black"/>
</g>
</svg>
