<svg width="100" height="100" viewBox="0 0 100 100" fill="none" xmlns="http://www.w3.org/2000/svg">
<path d="M49.5 92.5109C48.3354 92.5109 47.2484 92.2003 46.2391 91.6568L35.913 85.5233C34.3602 84.6693 35.1366 84.3587 35.6025 84.2034C37.6988 83.5047 38.087 83.3494 40.2609 82.1071C40.4938 81.9519 40.8043 82.0295 41.0373 82.1848L48.9565 86.9208C49.2671 87.0761 49.6553 87.0761 49.8882 86.9208L80.8665 68.986C81.177 68.8307 81.3323 68.5202 81.3323 68.132V32.3401C81.3323 31.9519 81.177 31.6413 80.8665 31.486L49.8882 13.6289C49.5776 13.4736 49.1894 13.4736 48.9565 13.6289L17.9783 31.486C17.6677 31.6413 17.5124 32.0295 17.5124 32.3401V68.132C17.5124 68.4425 17.6677 68.8307 17.9783 68.986L26.441 73.8773C31.0217 76.2065 33.8944 73.4891 33.8944 70.7717V35.4457C33.8944 34.9798 34.2826 34.514 34.8261 34.514H38.7857C39.2516 34.514 39.7174 34.9022 39.7174 35.4457V70.7717C39.7174 76.9053 36.3789 80.4767 30.5559 80.4767C28.7702 80.4767 27.3727 80.4767 23.413 78.5357L15.2609 73.8773C13.2422 72.7127 12 70.5388 12 68.2096V32.4177C12 30.0885 13.2422 27.9146 15.2609 26.75L46.2391 8.81522C48.1801 7.72826 50.8199 7.72826 52.7609 8.81522L83.7391 26.75C85.7578 27.9146 87 30.0885 87 32.4177V68.2096C87 70.5388 85.7578 72.7127 83.7391 73.8773L52.7609 91.8121C51.7516 92.278 50.587 92.5109 49.5 92.5109ZM59.0497 67.8991C45.4627 67.8991 42.6677 61.6879 42.6677 56.4084C42.6677 55.9425 43.0559 55.4767 43.5994 55.4767H47.6366C48.1025 55.4767 48.4907 55.7873 48.4907 56.2531C49.1118 60.368 50.8975 62.3866 59.1273 62.3866C65.6491 62.3866 68.4441 60.9115 68.4441 57.4177C68.4441 55.3991 67.6677 53.9239 57.4969 52.9146C49.0342 52.0606 43.7547 50.1972 43.7547 43.4425C43.7547 37.1537 49.0342 33.427 57.8851 33.427C67.823 33.427 72.7143 36.8432 73.3354 44.2966C73.3354 44.5295 73.2578 44.7624 73.1025 44.9953C72.9472 45.1506 72.7143 45.3059 72.4814 45.3059H68.4441C68.0559 45.3059 67.6677 44.9953 67.5901 44.6071C66.6584 40.337 64.2516 38.9394 57.8851 38.9394C50.7422 38.9394 49.8882 41.4239 49.8882 43.2873C49.8882 45.5388 50.8975 46.2376 60.5248 47.4798C70.0745 48.7221 74.5776 50.5078 74.5776 57.1848C74.5 64.0171 68.9099 67.8991 59.0497 67.8991Z" fill="white"/>
</svg>
