<svg width="70" height="70" viewBox="0 0 70 70" fill="none" xmlns="http://www.w3.org/2000/svg">
<path d="M40.6875 35C40.6875 38.1439 38.1439 40.6875 35 40.6875C31.8561 40.6875 29.3125 38.1439 29.3125 35C29.3125 31.8561 31.8561 29.3125 35 29.3125C38.1439 29.3125 40.6875 31.8561 40.6875 35Z" fill="#8BB7F0"/>
<path d="M21.4148 66.0651C19.9176 66.0651 18.5544 65.7221 17.3617 65.0466C15.3667 63.9152 13.9878 61.9657 13.2615 59.2541C12.4171 56.0979 12.5177 51.9058 13.552 47.1108C5.2115 44.2417 0.4375 39.8396 0.4375 34.9999C0.4375 30.1594 5.21063 25.7582 13.5511 22.8899C12.5169 18.0941 12.4154 13.9019 13.2598 10.7458C13.986 8.03331 15.365 6.08381 17.3591 4.95331C18.5509 4.27781 19.915 3.93481 21.4121 3.93481C25.2516 3.93481 30.0667 6.32356 35.0017 10.6706C39.9367 6.32794 44.7501 3.94094 48.5853 3.94094C50.0824 3.94094 51.4456 4.28394 52.6383 4.95944C54.6306 6.08906 56.0105 8.03506 56.7368 10.7441C57.582 13.8993 57.4805 18.0923 56.4454 22.8891C64.7876 25.7573 69.5625 30.1594 69.5625 34.9999C69.5625 39.8404 64.7876 44.2426 56.4454 47.1117C57.4796 51.9076 57.5811 56.0997 56.7359 59.2549C56.0096 61.9648 54.6315 63.9108 52.6409 65.0404C51.4474 65.7159 50.0832 66.0589 48.587 66.0589C44.7492 66.0589 39.9341 63.6719 35.0009 59.3311C30.0659 63.6772 25.2516 66.0651 21.4148 66.0651ZM16.9199 48.1302C16.0527 52.2576 15.9556 55.7838 16.6434 58.3493C17.1176 60.1221 17.9393 61.3514 19.0881 62.0024C19.747 62.3761 20.5301 62.5659 21.4148 62.5659C24.3845 62.5659 28.294 60.5692 32.4581 56.9336C30.3713 54.8318 28.3342 52.4527 26.3961 49.8539C23.044 49.4899 19.859 48.9107 16.9199 48.1302ZM37.5427 56.9318C41.706 60.5639 45.6164 62.5589 48.5861 62.5598C49.4707 62.5598 50.2539 62.3699 50.9145 61.9963C52.0599 61.3471 52.8797 60.1203 53.3531 58.3502C54.0409 55.7829 53.9446 52.2576 53.0775 48.1311C50.1357 48.9116 46.9499 49.4908 43.5986 49.8548C41.6614 52.4536 39.627 54.8318 37.5427 56.9318ZM31.1203 50.2188C32.3908 51.7728 33.691 53.2227 35 54.5413C36.3055 53.2236 37.6066 51.7737 38.8763 50.2188C37.5716 50.2809 36.2723 50.3124 35 50.3124C33.7269 50.3124 32.4266 50.2809 31.1203 50.2188ZM28.3054 46.5316C30.4885 46.7179 32.7399 46.8124 35 46.8124C37.2619 46.8124 39.5106 46.7179 41.6903 46.5324C42.9905 44.7089 44.2304 42.7979 45.3775 40.8493C46.487 38.9637 47.5309 36.9958 48.4811 34.9991C47.5335 33.0076 46.4905 31.0406 45.3784 29.1506C44.2339 27.2063 42.994 25.2953 41.6903 23.4674C39.5124 23.2819 37.2636 23.1874 35 23.1874C32.7355 23.1874 30.4859 23.2819 28.3089 23.4683C27.0051 25.2936 25.7635 27.2046 24.6173 29.1514C23.506 31.0406 22.463 33.0076 21.5145 35.0017C22.4613 36.9914 23.5042 38.9584 24.6164 40.8502C25.7574 42.7883 26.9972 44.6984 28.3054 46.5316ZM50.3046 39.1816C49.6869 40.3593 49.0464 41.5143 48.3927 42.6238C47.7339 43.7456 47.033 44.8708 46.305 45.9803C48.3822 45.6601 50.3694 45.2497 52.2296 44.7553C51.7134 42.9624 51.0667 41.0926 50.3046 39.1816ZM17.766 44.7544C19.6271 45.2479 21.6134 45.6592 23.688 45.9794C22.9556 44.8629 22.2548 43.7368 21.6003 42.6238C20.9484 41.5152 20.307 40.3619 19.6901 39.1842C18.9315 41.0864 18.2858 42.9546 17.766 44.7544ZM52.339 34.9999C53.676 37.9671 54.7654 40.9001 55.5835 43.7298C62.0602 41.4513 66.0625 38.1272 66.0625 34.9999C66.0625 31.8727 62.0602 28.5486 55.5835 26.2701C54.7671 29.0998 53.6769 32.0328 52.339 34.9999ZM14.413 26.2718C7.93888 28.5494 3.9375 31.8736 3.9375 34.9999C3.9375 38.1272 7.93888 41.4513 14.4148 43.7289C15.232 40.8983 16.3214 37.9653 17.6566 35.0017C16.3205 32.0372 15.2311 29.1042 14.413 26.2718ZM17.7651 25.2454C18.2849 27.0427 18.9306 28.9117 19.6901 30.8174C20.3061 29.6432 20.9466 28.4891 21.6011 27.3769C22.2591 26.2578 22.96 25.1326 23.6906 24.0204C21.6134 24.3398 19.6271 24.7511 17.7651 25.2454ZM46.3068 24.0196C47.0391 25.1369 47.74 26.2622 48.3945 27.3769C49.0472 28.4856 49.6886 29.6397 50.3064 30.8174C51.0667 28.9126 51.7125 27.0436 52.2323 25.2446C50.3685 24.7502 48.3823 24.3389 46.3068 24.0196ZM21.4121 7.43481C20.5275 7.43481 19.7452 7.62381 19.0872 7.99831C17.9392 8.64931 17.1167 9.87869 16.6416 11.6514C15.9547 14.2196 16.051 17.7449 16.919 21.8706C19.859 21.0901 23.0457 20.5099 26.3988 20.1459C28.3386 17.5463 30.3756 15.1689 32.4599 13.0689C28.2949 9.43156 24.3828 7.43481 21.4121 7.43481ZM43.5995 20.1451C46.9507 20.5091 50.1366 21.0883 53.0784 21.8688C53.9464 17.7423 54.0435 14.2161 53.3549 11.6488C52.8806 9.87956 52.0599 8.65281 50.9136 8.00356C50.2539 7.62994 49.4708 7.44006 48.5853 7.44006C45.6164 7.44006 41.7078 9.43594 37.5436 13.0689C39.6261 15.1681 41.6614 17.5463 43.5995 20.1451ZM35 19.6874C36.2723 19.6874 37.5716 19.7189 38.8771 19.7811C37.6084 18.2288 36.3081 16.7798 35.0017 15.4603C33.6919 16.7816 32.3925 18.2306 31.1237 19.7811C32.4284 19.7189 33.7277 19.6874 35 19.6874Z" fill="#8BB7F0"/>
</svg>
