<svg width="100" height="100" viewBox="0 0 100 100" fill="none" xmlns="http://www.w3.org/2000/svg">
<path d="M50 26C39.3333 26 32.6667 31.3333 30 42C34 36.6667 38.6667 34.6667 44 36C47.043 36.7607 49.2179 38.9683 51.6253 41.412C55.5471 45.3927 60.0861 50 70 50C80.6667 50 87.3333 44.6667 90 34C86 39.3333 81.3333 41.3333 76 40C72.957 39.2393 70.7821 37.0317 68.3747 34.588C64.4529 30.6073 59.9139 26 50 26ZM30 50C19.3333 50 12.6667 55.3333 10 66C14 60.6667 18.6667 58.6667 24 60C27.043 60.7607 29.2179 62.9683 31.6253 65.412C35.5471 69.3927 40.0861 74 50 74C60.6667 74 67.3333 68.6667 70 58C66 63.3333 61.3333 65.3333 56 64C52.957 63.2393 50.7821 61.0317 48.3747 58.588C44.4529 54.6073 39.9139 50 30 50Z" fill="#79DFFF"/>
</svg>
