<svg width="80" height="80" viewBox="0 0 80 80" fill="none" xmlns="http://www.w3.org/2000/svg">
<path d="M70 10H10V70H70V10Z" fill="#1976D2"/>
<path d="M41 22H15V28.3467H24.3253V57H31.7139V28.3467H41V22Z" fill="white"/>
<path d="M63.3974 29.9448C63.3974 29.9448 59.9346 27.6211 56.0202 27.6211C52.1058 27.6211 50.697 29.4925 50.697 31.4926C50.697 36.6547 65 36.1381 65 46.5266C65 62.5294 43.1918 55.4316 43.1918 55.4316V47.7547C43.1918 47.7547 47.362 50.9167 52.3635 50.9167C57.365 50.9167 57.1751 47.6261 57.1751 47.1738C57.1751 42.3997 43 42.3996 43 31.8162C43 17.4275 63.6532 23.1042 63.6532 23.1042L63.3974 29.9448Z" fill="white"/>
</svg>
