<svg width="509" height="514" viewBox="0 0 509 514" fill="none" xmlns="http://www.w3.org/2000/svg">
<path d="M462.162 399.635C485.192 367.69 523.453 279.171 492.25 180.66C461.048 82.1488 390.842 38.5767 359.639 29.1045C325.836 10.16 239.844 -16.3621 166.295 29.1045C167.186 57.1868 203.069 45.263 220.899 35.7908C224.057 25.9471 235.609 9.71434 256.559 23.5326C282.747 40.8055 296.12 57.5211 281.076 75.9084C266.031 94.2956 245.973 60.8643 245.973 52.5064C245.973 44.1486 234.272 34.1192 220.899 52.5064C218.093 56.3644 216.453 59.6935 215.639 62.5358M215.639 62.5358C213.352 70.5309 218.67 78.6943 225.914 78.6943L230.928 72.0081L215.639 62.5358ZM215.639 62.5358C196.962 60.8643 156.934 63.2045 146.236 85.9378C135.538 108.671 182.453 121.041 198.054 110.454L220.899 94.2956C240.401 83.1518 270.239 110.677 245.973 127.17C215.639 147.786 183.01 127.17 152.922 194.032C152.922 219.44 167.038 221.706 174.095 219.663C179.667 217.063 189.139 210.079 182.453 202.947C174.095 194.032 137.321 163.387 107.233 176.202C83.162 186.455 83.8306 199.604 91.0741 219.663C103.889 229.693 126.177 219.663 123.948 254.209C134.535 277.611 148.465 278.725 152.922 285.969C157.38 293.212 168.523 298.784 146.236 299.341C123.948 299.898 84.3879 283.183 76.03 264.795C69.3438 250.086 63.2147 240.465 60.9859 237.493C42.5987 214.463 19.8654 155.141 76.03 102.096C107.233 85.9378 123.948 77.5799 115.59 62.5358C107.233 47.4917 14.7392 104.882 5.26701 212.977C-4.2052 321.071 35.9125 478.756 245.973 508.844C245.973 507.73 190.811 501.043 182.453 469.841C174.095 438.638 215.884 440.867 174.095 386.263C132.306 331.658 159.051 325.529 192.482 285.969C225.914 246.408 213.656 240.279 198.054 233.036C182.453 225.792 155.151 267.024 245.973 299.341C264.917 326.086 268.817 327.201 318.407 345.031C367.997 362.861 316.178 420.251 281.076 416.908C252.993 414.233 245.973 440.31 245.973 453.682L215.639 469.841C210.892 475.227 207.415 487.671 231.486 494.357C261.574 502.715 374.683 521.659 436.531 416.908C453.247 353.946 450.501 320.514 475.534 309.928C500.568 299.341 498.936 224.121 475.534 224.121C456.813 224.121 452.69 256.438 441.546 264.795C428.359 278.354 399.311 297.335 388.613 264.795C375.24 224.121 410.9 145 436.531 145.557C462.162 146.114 455.662 133.856 457.147 122.155C458.335 112.794 443.898 104.882 436.531 102.096C429.164 99.3103 418.367 100.982 414.801 94.2956C411.235 87.6093 401.985 94.2956 400.314 103.768C400.069 117.326 413.129 141.657 405.329 152.8C398.174 163.021 388.613 160.044 383.598 152.8C378.584 145.557 362.425 116.026 388.613 75.9084C383.598 52.5064 331.78 79.8087 336.794 110.454C341.809 141.099 391.235 64.7646 311 29.1045" stroke="url(#paint0_linear_24_31)" stroke-width="8"/>
<defs>
<linearGradient id="paint0_linear_24_31" x1="254" y1="4" x2="254" y2="508.844" gradientUnits="userSpaceOnUse">
<stop stop-color="#D2AA41"/>
<stop offset="0.398638" stop-color="#A24444"/>
<stop offset="0.812372" stop-color="#4178CC"/>
<stop offset="1" stop-color="#0A0A0A"/>
</linearGradient>
</defs>
</svg>
