<svg width="107" height="34" viewBox="0 0 107 34" fill="none" xmlns="http://www.w3.org/2000/svg">
<path d="M57.0218 12.2898H54.8968C54.8362 11.9413 54.7244 11.6326 54.5615 11.3636C54.3987 11.0909 54.196 10.8598 53.9536 10.6705C53.7112 10.4811 53.4347 10.339 53.124 10.2443C52.8172 10.1458 52.4858 10.0966 52.1297 10.0966C51.4972 10.0966 50.9365 10.2557 50.4479 10.5739C49.9593 10.8883 49.5767 11.3504 49.3002 11.9602C49.0237 12.5663 48.8854 13.3068 48.8854 14.1818C48.8854 15.072 49.0237 15.822 49.3002 16.4318C49.5805 17.0379 49.9631 17.4962 50.4479 17.8068C50.9365 18.1136 51.4953 18.267 52.124 18.267C52.4725 18.267 52.7983 18.2216 53.1013 18.1307C53.4081 18.036 53.6828 17.8977 53.9252 17.7159C54.1714 17.5341 54.3778 17.3106 54.5445 17.0455C54.715 16.7803 54.8324 16.4773 54.8968 16.1364L57.0218 16.1477C56.9422 16.7008 56.7699 17.2197 56.5047 17.7045C56.2434 18.1894 55.9006 18.6174 55.4763 18.9886C55.0521 19.3561 54.5559 19.6439 53.9877 19.8523C53.4195 20.0568 52.7888 20.1591 52.0956 20.1591C51.0729 20.1591 50.16 19.9223 49.357 19.4489C48.554 18.9754 47.9214 18.2917 47.4593 17.3977C46.9972 16.5038 46.7661 15.4318 46.7661 14.1818C46.7661 12.928 46.999 11.8561 47.465 10.9659C47.9309 10.072 48.5653 9.38826 49.3684 8.91477C50.1714 8.44129 51.0805 8.20455 52.0956 8.20455C52.7434 8.20455 53.3456 8.29545 53.9025 8.47727C54.4593 8.65909 54.9555 8.92614 55.3911 9.27841C55.8267 9.62689 56.1847 10.0549 56.465 10.5625C56.749 11.0663 56.9347 11.642 57.0218 12.2898ZM64.4238 16.3295V11.2727H66.4806V20H64.4863V18.4489H64.3954C64.1984 18.9375 63.8745 19.3371 63.4238 19.6477C62.9768 19.9583 62.4257 20.1136 61.7704 20.1136C61.1984 20.1136 60.6927 19.9867 60.2533 19.733C59.8177 19.4754 59.4768 19.1023 59.2306 18.6136C58.9844 18.1212 58.8613 17.5265 58.8613 16.8295V11.2727H60.9181V16.5114C60.9181 17.0644 61.0696 17.5038 61.3726 17.8295C61.6757 18.1553 62.0734 18.3182 62.5658 18.3182C62.8688 18.3182 63.1624 18.2443 63.4465 18.0966C63.7306 17.9489 63.9635 17.7292 64.1454 17.4375C64.331 17.142 64.4238 16.7727 64.4238 16.3295ZM68.5956 20V11.2727H70.59V12.7273H70.6809C70.84 12.2235 71.1127 11.8352 71.499 11.5625C71.8892 11.286 72.3343 11.1477 72.8343 11.1477C72.9479 11.1477 73.0748 11.1534 73.215 11.1648C73.3589 11.1723 73.4782 11.1856 73.5729 11.2045V13.0966C73.4858 13.0663 73.3475 13.0398 73.1581 13.017C72.9725 12.9905 72.7926 12.9773 72.6184 12.9773C72.2434 12.9773 71.9062 13.0587 71.607 13.2216C71.3115 13.3807 71.0786 13.6023 70.9081 13.8864C70.7377 14.1705 70.6525 14.4981 70.6525 14.8693V20H68.5956ZM74.9394 20V11.2727H76.9962V20H74.9394ZM75.9735 10.0341C75.6477 10.0341 75.3674 9.92614 75.1326 9.71023C74.8977 9.49053 74.7803 9.22727 74.7803 8.92045C74.7803 8.60985 74.8977 8.34659 75.1326 8.13068C75.3674 7.91098 75.6477 7.80114 75.9735 7.80114C76.303 7.80114 76.5833 7.91098 76.8144 8.13068C77.0492 8.34659 77.1667 8.60985 77.1667 8.92045C77.1667 9.22727 77.0492 9.49053 76.8144 9.71023C76.5833 9.92614 76.303 10.0341 75.9735 10.0341ZM82.9181 20.1705C82.0658 20.1705 81.3272 19.983 80.7022 19.608C80.0772 19.233 79.5923 18.7083 79.2476 18.0341C78.9067 17.3598 78.7363 16.572 78.7363 15.6705C78.7363 14.7689 78.9067 13.9792 79.2476 13.3011C79.5923 12.6231 80.0772 12.0966 80.7022 11.7216C81.3272 11.3466 82.0658 11.1591 82.9181 11.1591C83.7704 11.1591 84.509 11.3466 85.134 11.7216C85.759 12.0966 86.2419 12.6231 86.5829 13.3011C86.9275 13.9792 87.0999 14.7689 87.0999 15.6705C87.0999 16.572 86.9275 17.3598 86.5829 18.0341C86.2419 18.7083 85.759 19.233 85.134 19.608C84.509 19.983 83.7704 20.1705 82.9181 20.1705ZM82.9294 18.5227C83.3916 18.5227 83.7779 18.3958 84.0885 18.142C84.3991 17.8845 84.6302 17.5398 84.7817 17.108C84.937 16.6761 85.0147 16.1951 85.0147 15.6648C85.0147 15.1307 84.937 14.6477 84.7817 14.2159C84.6302 13.7803 84.3991 13.4337 84.0885 13.1761C83.7779 12.9186 83.3916 12.7898 82.9294 12.7898C82.456 12.7898 82.062 12.9186 81.7476 13.1761C81.437 13.4337 81.2041 13.7803 81.0488 14.2159C80.8972 14.6477 80.8215 15.1307 80.8215 15.6648C80.8215 16.1951 80.8972 16.6761 81.0488 17.108C81.2041 17.5398 81.437 17.8845 81.7476 18.142C82.062 18.3958 82.456 18.5227 82.9294 18.5227ZM94.4081 16.3295V11.2727H96.465V20H94.4706V18.4489H94.3797C94.1828 18.9375 93.8589 19.3371 93.4081 19.6477C92.9612 19.9583 92.41 20.1136 91.7547 20.1136C91.1828 20.1136 90.6771 19.9867 90.2377 19.733C89.8021 19.4754 89.4612 19.1023 89.215 18.6136C88.9687 18.1212 88.8456 17.5265 88.8456 16.8295V11.2727H90.9025V16.5114C90.9025 17.0644 91.054 17.5038 91.357 17.8295C91.66 18.1553 92.0578 18.3182 92.5502 18.3182C92.8532 18.3182 93.1468 18.2443 93.4309 18.0966C93.715 17.9489 93.9479 17.7292 94.1297 17.4375C94.3153 17.142 94.4081 16.7727 94.4081 16.3295ZM105.478 13.5795L103.603 13.7841C103.55 13.5947 103.457 13.4167 103.324 13.25C103.196 13.0833 103.021 12.9489 102.802 12.8466C102.582 12.7443 102.313 12.6932 101.995 12.6932C101.567 12.6932 101.207 12.786 100.915 12.9716C100.627 13.1572 100.485 13.3977 100.489 13.6932C100.485 13.947 100.578 14.1534 100.768 14.3125C100.961 14.4716 101.279 14.6023 101.722 14.7045L103.211 15.0227C104.036 15.2008 104.65 15.483 105.052 15.8693C105.457 16.2557 105.661 16.7614 105.665 17.3864C105.661 17.9356 105.5 18.4205 105.182 18.8409C104.868 19.2576 104.43 19.5833 103.87 19.8182C103.309 20.053 102.665 20.1705 101.938 20.1705C100.87 20.1705 100.01 19.947 99.3584 19.5C98.7069 19.0492 98.3186 18.4223 98.1936 17.6193L100.199 17.4261C100.29 17.8201 100.483 18.1174 100.779 18.3182C101.074 18.5189 101.459 18.6193 101.932 18.6193C102.421 18.6193 102.813 18.5189 103.108 18.3182C103.408 18.1174 103.557 17.8693 103.557 17.5739C103.557 17.3239 103.461 17.1174 103.268 16.9545C103.078 16.7917 102.783 16.6667 102.381 16.5795L100.893 16.267C100.055 16.0928 99.4361 15.7992 99.0346 15.3864C98.633 14.9697 98.4342 14.4432 98.438 13.8068C98.4342 13.2689 98.58 12.803 98.8755 12.4091C99.1747 12.0114 99.5895 11.7045 100.12 11.4886C100.654 11.2689 101.269 11.1591 101.966 11.1591C102.989 11.1591 103.794 11.3769 104.381 11.8125C104.972 12.2481 105.338 12.8371 105.478 13.5795Z" fill="white"/>
<rect x="13.9138" y="4" width="20" height="20" fill="#A34444"/>
<circle cx="32.4138" cy="8.5" r="8.5" fill="#D2AA41"/>
<path d="M20.7924 11.7578L4.33377 17.1537L17.236 28.7093L20.7924 11.7578Z" fill="#4178CC"/>
</svg>
